<svg width="20" height="20" viewBox="0 0 20 20" fill="none" xmlns="http://www.w3.org/2000/svg">
<path d="M19.6529 18.625C19.7538 18.7251 19.8228 18.8529 19.8511 18.9922C19.8794 19.1315 19.8657 19.2761 19.8119 19.4076C19.758 19.5392 19.6664 19.6518 19.5485 19.7313C19.4307 19.8107 19.2919 19.8535 19.1497 19.8541C19.0546 19.8537 18.9606 19.8344 18.873 19.7974C18.7854 19.7604 18.706 19.7064 18.6394 19.6385L10.0144 11.0135L1.38941 19.6385C1.32285 19.7064 1.24346 19.7604 1.15587 19.7974C1.06827 19.8344 0.974197 19.8537 0.879101 19.8541C0.736952 19.8535 0.598172 19.8107 0.480309 19.7313C0.362445 19.6518 0.270794 19.5392 0.216941 19.4076C0.163088 19.2761 0.149454 19.1315 0.177762 18.9922C0.20607 18.8529 0.275049 18.7251 0.375977 18.625L9.00098 10L0.375977 1.37501C0.299975 1.31161 0.237888 1.23318 0.193608 1.14466C0.149329 1.05613 0.12381 0.95942 0.118652 0.860575C0.113494 0.761729 0.128809 0.662883 0.163635 0.570232C0.19846 0.477581 0.252047 0.393122 0.321037 0.322147C0.390026 0.251172 0.472932 0.195211 0.564558 0.157771C0.656184 0.120332 0.754556 0.102221 0.853508 0.104573C0.95246 0.106925 1.04986 0.12969 1.1396 0.17144C1.22935 0.213191 1.3095 0.273029 1.37504 0.347202L10 8.9722L18.625 0.347202C18.6925 0.279715 18.7726 0.226181 18.8608 0.189657C18.949 0.153133 19.0435 0.134336 19.1389 0.134336C19.2344 0.134336 19.3289 0.153133 19.4171 0.189657C19.5052 0.226181 19.5854 0.279715 19.6529 0.347202C19.7203 0.414689 19.7739 0.494808 19.8104 0.582984C19.8469 0.67116 19.8657 0.765667 19.8657 0.861108C19.8657 0.956549 19.8469 1.05106 19.8104 1.13923C19.7739 1.22741 19.7203 1.30753 19.6529 1.37501L11.0279 10L19.6529 18.625Z" fill="black"/>
</svg>
